<svg fill="none" height="64" viewBox="0 0 64 64" width="64" xmlns="http://www.w3.org/2000/svg"><path d="m7 32c0-25 0-25 25-25s25 0 25 25 0 25-25 25-25 0-25-25z" fill="#f3ff39"/><g fill="#332"><path clip-rule="evenodd" d="m24.7412 6.70392c.1635 2.75658-1.9385 5.12378-4.6951 5.28728-4.8964.2905-6.1505 1.0301-6.5876 1.4673-.4372.4371-1.1768 1.6912-1.4673 6.5876-.1635 2.7566-2.5307 4.8586-5.28728 4.6951-2.75657-.1635-4.85866-2.5307-4.69514-5.2873.29005-4.8896 1.03239-9.72028 4.37861-13.06651 3.34623-3.34622 8.17691-4.08856 13.06651-4.37861 2.7566-.16352 5.1238 1.93857 5.2873 4.69514zm14.5176 0c.1635-2.75657 2.5307-4.85866 5.2873-4.69514 4.8896.29005 9.7203 1.03239 13.0665 4.37861 3.3462 3.34623 4.0886 8.17691 4.3786 13.06651.1636 2.7566-1.9385 5.1238-4.6951 5.2873s-5.1238-1.9385-5.2873-4.6951c-.2905-4.8964-1.0301-6.1505-1.4673-6.5876-.4371-.4372-1.6912-1.1768-6.5876-1.4673-2.7566-.1635-4.8586-2.5307-4.6951-5.28728zm-32.55488 32.55488c2.75658-.1635 5.12378 1.9385 5.28728 4.6951.2905 4.8964 1.0301 6.1505 1.4673 6.5876.4371.4372 1.6912 1.1768 6.5876 1.4673 2.7566.1635 4.8586 2.5307 4.6951 5.2873s-2.5307 4.8587-5.2873 4.6951c-4.8896-.29-9.72028-1.0324-13.06651-4.3786-3.34622-3.3462-4.08856-8.1769-4.37861-13.0665-.16352-2.7566 1.93857-5.1238 4.69514-5.2873zm50.59218 0c2.7566.1635 4.8587 2.5307 4.6951 5.2873-.29 4.8896-1.0324 9.7203-4.3786 13.0665s-8.1769 4.0886-13.0665 4.3786c-2.7566.1636-5.1238-1.9385-5.2873-4.6951s1.9385-5.1238 4.6951-5.2873c4.8964-.2905 6.1505-1.0301 6.5876-1.4673.4372-.4371 1.1768-1.6912 1.4673-6.5876.1635-2.7566 2.5307-4.8586 5.2873-4.6951z" fill-rule="evenodd" opacity=".1"/><path d="m32.0021 42.5c-1.1865 0-2.1978-.1456-3.0342-.4369-.8169-.2913-1.4879-.6311-2.0131-1.0194-.5251-.4078-.9238-.7767-1.1961-1.1068s-.4376-.534-.496-.6117c-.389-.4854-.6321-.9223-.7294-1.3106-.0778-.3884-.0194-.7767.1751-1.1651.2139-.3883.564-.8155 1.0503-1.2815.4473-.4272.885-.6602 1.3128-.6991.4279-.0582.8461.0292 1.2546.2622.4279.233.8363.5728 1.2253 1.0194.4668.5243.8655.8835 1.1962 1.0777.3306.1747.7099.2621 1.1378.2621.5251 0 .953-.0583 1.2837-.1748.3306-.1359.5737-.3301.7293-.5825.1556-.2718.2334-.6116.2334-1.0194 0-.3301-.1653-.5825-.4959-.7573-.3307-.1942-.7683-.3592-1.3129-.4951-.5251-.136-1.1184-.2816-1.7797-.4369-.6612-.1748-1.3128-.3981-1.9547-.6699-.389-.1554-.7682-.3495-1.1378-.5826-.3695-.233-.7196-.4951-1.0503-.7864-.3112-.3106-.5835-.6699-.8169-1.0776-.2334-.4272-.4181-.9029-.5543-1.4272-.1167-.5243-.175-1.1165-.175-1.7767 0-1.1845.2917-2.2427.8752-3.1748.603-.932 1.4198-1.6699 2.4507-2.2136 1.0503-.5437 2.2367-.8155 3.5593-.8155.9531 0 1.7699.0777 2.4507.233.6807.1553 1.2351.3398 1.663.5534.4473.2136.7877.4175 1.0211.6117.2334.1747.3792.2912.4376.3495.6418.5825.9919 1.0874 1.0503 1.5145.0583.4078-.1751 1-.7002 1.7767-.5835.835-1.1573 1.3107-1.7213 1.4272-.5641.0971-1.2156-.0874-1.9547-.5534-.1556-.1165-.3112-.2427-.4668-.3786-.1556-.1554-.3696-.2816-.6419-.3787-.2528-.1165-.6418-.1747-1.167-.1747-.1945 0-.389.0388-.5835.1165-.1945.0582-.3598.1456-.4959.2621-.1362.0971-.2529.2233-.3501.3787-.0778.1553-.1167.3204-.1167.4951 0 .4078.1556.7282.4668.9612.3112.2136.7196.3786 1.2253.4951.5252.1165 1.0989.233 1.7213.3495s1.2545.2719 1.8964.4661c.5251.1747 1.0308.398 1.5171.6699.4862.2718.9141.6213 1.2837 1.0485.3695.4272.6613.9612.8752 1.6019.2334.6214.3501 1.3884.3501 2.301 0 1.2621-.2431 2.3398-.7294 3.233-.4862.8738-1.1183 1.5825-1.8963 2.1262-.7586.5243-1.5755.9029-2.4507 1.136-.8558.2524-1.663.3786-2.4215.3786z"/></g></svg>